<svg width="45" height="46" viewBox="0 0 45 46" fill="none" xmlns="http://www.w3.org/2000/svg">
<path d="M45 22.7673C45 19.4097 41.2668 16.2277 35.5432 14.2544C36.864 7.68374 36.277 2.45614 33.6904 0.782483C33.0942 0.389897 32.3971 0.203935 31.6358 0.203935V2.5078C32.0577 2.5078 32.3971 2.60078 32.6814 2.77641C33.9289 3.58225 34.47 6.65062 34.0481 10.5971C33.9472 11.5683 33.7821 12.5911 33.5803 13.6345C31.7825 13.1386 29.8196 12.7564 27.7558 12.5084C26.5175 10.5971 25.2334 8.8615 23.9401 7.34281C26.9303 4.21245 29.7371 2.49747 31.6449 2.49747V0.193604C29.1225 0.193604 25.8204 2.21852 22.4817 5.73114C19.1429 2.23919 15.8408 0.234929 13.3184 0.234929V2.53879C15.2171 2.53879 18.033 4.24345 21.0232 7.35315C19.7391 8.87184 18.455 10.5971 17.235 12.5084C15.162 12.7564 13.1991 13.1386 11.4013 13.6449C11.1904 12.6117 11.0344 11.6096 10.9244 10.6488C10.4933 6.70228 11.0253 3.6339 12.2636 2.81774C12.5387 2.63177 12.8965 2.54912 13.3184 2.54912V0.24526C12.5479 0.24526 11.8508 0.431222 11.2454 0.823808C8.66796 2.49747 8.09009 7.71474 9.4201 14.2647C3.71484 16.2483 0 19.42 0 22.7673C0 26.125 3.73318 29.307 9.45679 31.2803C8.13596 37.8509 8.72299 43.0785 11.3096 44.7522C11.9058 45.1448 12.6029 45.3307 13.3734 45.3307C15.8958 45.3307 19.1979 43.3058 22.5367 39.7932C25.8755 43.2852 29.1775 45.2894 31.7 45.2894C32.4704 45.2894 33.1676 45.1035 33.7729 44.7109C36.3504 43.0372 36.9283 37.8199 35.5982 31.2699C41.2852 29.2967 45 26.1147 45 22.7673ZM33.0575 15.8764C32.7181 17.2091 32.2962 18.5832 31.8192 19.9572C31.4431 19.1307 31.0487 18.3042 30.6176 17.4777C30.1957 16.6513 29.7462 15.8454 29.2968 15.0602C30.5993 15.2772 31.8559 15.5458 33.0575 15.8764ZM28.8565 26.8792C28.1411 28.2739 27.4073 29.5963 26.6459 30.8257C25.2793 30.96 23.8942 31.0323 22.5 31.0323C21.115 31.0323 19.7299 30.96 18.3724 30.836C17.6111 29.6066 16.8681 28.2945 16.1527 26.9102C15.4556 25.5568 14.8227 24.1827 14.2448 22.7983C14.8135 21.4139 15.4556 20.0296 16.1435 18.6762C16.859 17.2815 17.5927 15.9591 18.3541 14.7296C19.7208 14.5953 21.1058 14.523 22.5 14.523C23.885 14.523 25.2701 14.5953 26.6276 14.7193C27.3889 15.9487 28.1319 17.2608 28.8473 18.6452C29.5444 19.9986 30.1773 21.3726 30.7552 22.757C30.1773 24.1414 29.5444 25.5258 28.8565 26.8792ZM31.8192 25.5361C32.3145 26.9205 32.7365 28.3049 33.085 29.6479C31.8834 29.9785 30.6176 30.2575 29.306 30.4744C29.7554 29.6789 30.2049 28.8628 30.6268 28.0259C31.0487 27.1994 31.4431 26.3626 31.8192 25.5361ZM22.5183 36.5595C21.6653 35.5677 20.8123 34.4623 19.9684 33.2535C20.7939 33.2949 21.6378 33.3259 22.4908 33.3259C23.353 33.3259 24.2061 33.3052 25.0408 33.2535C24.2152 34.4623 23.3622 35.5677 22.5183 36.5595ZM15.694 30.4744C14.3916 30.2575 13.1349 29.9889 11.9333 29.6583C12.2727 28.3255 12.6947 26.9515 13.1716 25.5774C13.5477 26.4039 13.9421 27.2304 14.3732 28.0569C14.8043 28.8834 15.2446 29.6893 15.694 30.4744ZM22.4725 8.97515C23.3255 9.96695 24.1786 11.0724 25.0224 12.2811C24.1969 12.2398 23.353 12.2088 22.5 12.2088C21.6378 12.2088 20.7848 12.2295 19.9501 12.2811C20.7756 11.0724 21.6286 9.96695 22.4725 8.97515ZM15.6849 15.0602C15.2354 15.8557 14.786 16.6719 14.364 17.5087C13.9421 18.3352 13.5477 19.1617 13.1716 19.9882C12.6763 18.6039 12.2544 17.2195 11.9058 15.8764C13.1074 15.5561 14.3732 15.2772 15.6849 15.0602ZM7.38382 27.9949C4.13677 26.4349 2.03628 24.3893 2.03628 22.7673C2.03628 21.1453 4.13677 19.0894 7.38382 17.5397C8.17265 17.1575 9.03486 16.8166 9.92458 16.4963C10.4474 18.5212 11.1353 20.6288 11.9884 22.788C11.1445 24.9369 10.4658 27.0341 9.9521 29.0487C9.04403 28.7285 8.18182 28.3772 7.38382 27.9949ZM12.3186 42.7583C11.0711 41.9524 10.53 38.8841 10.9519 34.9375C11.0528 33.9664 11.2179 32.9436 11.4197 31.9001C13.2175 32.396 15.1804 32.7783 17.2442 33.0262C18.4825 34.9375 19.7666 36.6732 21.0599 38.1919C18.0697 41.3222 15.2629 43.0372 13.3551 43.0372C12.9423 43.0269 12.5938 42.9339 12.3186 42.7583ZM34.0756 34.8859C34.5067 38.8324 33.9747 41.9008 32.7364 42.7169C32.4613 42.9029 32.1035 42.9856 31.6816 42.9856C29.7829 42.9856 26.967 41.2809 23.9768 38.1712C25.2609 36.6525 26.545 34.9272 27.765 33.0159C29.838 32.768 31.8009 32.3857 33.5987 31.8795C33.8096 32.9229 33.9747 33.9251 34.0756 34.8859ZM37.607 27.9949C36.8182 28.3772 35.956 28.7181 35.0662 29.0384C34.5434 27.0135 33.8555 24.9059 33.0024 22.7467C33.8463 20.5978 34.5251 18.5005 35.0387 16.486C35.9468 16.8062 36.809 17.1575 37.6162 17.5397C40.8632 19.0998 42.9637 21.1453 42.9637 22.7673C42.9545 24.3893 40.8541 26.4453 37.607 27.9949Z" fill="#61DAFB"/>
<path d="M22.4909 27.4886C24.8059 27.4886 26.6827 25.3748 26.6827 22.7673C26.6827 20.1597 24.8059 18.0459 22.4909 18.0459C20.1758 18.0459 18.2991 20.1597 18.2991 22.7673C18.2991 25.3748 20.1758 27.4886 22.4909 27.4886Z" fill="#61DAFB"/>
</svg>
