<svg width="46" height="46" viewBox="0 0 46 46" fill="none" xmlns="http://www.w3.org/2000/svg">
<path d="M39.5239 26.7723C37.9505 26.7842 36.5881 27.2899 35.4454 28.0428C35.0235 26.9254 34.6016 25.949 34.5313 25.2199C34.4522 24.373 34.3555 23.8553 34.4522 22.8439C34.5488 21.8322 34.9883 20.3973 34.9883 20.2796C34.9794 20.1738 34.8915 19.6562 33.9863 19.6445C33.081 19.6327 32.2986 19.8797 32.2107 20.1973C32.1228 20.5149 31.947 21.2441 31.8328 21.9969C31.6745 23.1026 30.0221 27.0194 29.0815 29.0777C28.7739 28.2779 28.5102 27.5722 28.4574 27.0075C28.3784 26.1607 28.2816 25.6431 28.3784 24.6316C28.475 23.62 28.9145 22.1851 28.9145 22.0675C28.9057 21.9616 28.8179 21.4441 27.9126 21.4323C27.0071 21.4206 26.2249 21.6676 26.137 21.9851C26.0491 22.3027 25.9525 23.0555 25.7591 23.7848C25.5744 24.514 23.3769 31.0538 22.8056 32.7593C22.5155 33.6297 22.2607 34.3237 22.0761 34.7941C21.8915 35.2646 22.0673 34.8294 22.0497 34.8765C21.8915 35.2764 21.8036 35.4999 21.8036 35.4999V35.5117C21.6805 35.8058 21.5487 36.088 21.487 36.088C21.4431 36.088 21.3552 35.2999 21.5046 34.2179C21.8298 31.9477 22.6209 28.4074 22.6122 28.278C22.6122 28.2192 22.7616 27.5957 22.1023 27.2782C21.4607 26.9607 21.2322 27.49 21.1794 27.49C21.1267 27.49 21.0827 27.6781 21.0827 27.6781C21.0827 27.6781 21.7947 23.6909 19.7203 23.6909C18.4194 23.6909 16.6263 25.5846 15.7385 27.3136C15.1759 27.7253 13.9805 28.5956 12.7148 29.5249C12.2314 29.8778 11.7303 30.2542 11.2557 30.5953L11.1591 30.4539C8.64519 26.8664 3.99537 24.3258 4.18875 19.5033C4.25907 17.7508 4.71614 13.1282 13.1193 7.52946C20.0017 2.94222 25.513 4.20077 26.471 7.00016C27.8334 10.9993 23.5264 18.433 16.3715 19.5033C13.6467 19.915 12.2139 18.5036 11.8536 17.9743C11.4756 17.4214 11.4229 17.3979 11.2822 17.5038C11.0537 17.6684 11.1943 18.1624 11.2822 18.4565C11.4932 19.1975 12.3722 20.5149 13.8664 21.1736C15.176 21.7499 18.3756 22.0675 22.2431 20.0679C26.5765 17.8213 29.9606 11.5874 28.9674 6.37677C27.9565 1.07204 21.3817 -0.668762 15.1673 2.28354C11.4667 4.04786 7.45856 6.80021 4.5755 10.4112C1.14747 14.6926 0.602496 18.433 0.831032 19.9856C1.63099 25.5256 7.33551 29.1365 9.62086 31.8065C9.50659 31.8888 9.40112 31.9711 9.30443 32.0418C8.16175 32.7945 3.81078 35.841 2.72085 39.0637C1.49027 42.7099 2.91422 45.333 3.86352 45.6859C6.79933 46.7798 9.80545 44.8155 11.4316 41.5809C13.0488 38.3463 12.8555 34.1472 12.1084 32.23L12.0819 32.1594L12.9785 31.4537C13.5587 30.995 14.13 30.5715 14.631 30.2068C14.3498 31.2301 14.1475 32.4416 14.0421 34.2059C13.9191 36.2762 14.552 38.9578 15.387 40.0164C15.7562 40.475 16.1957 40.4869 16.4681 40.4869C17.435 40.4869 17.8745 39.4164 18.358 38.1345C18.9557 36.5701 19.4831 34.7587 19.4831 34.7587C19.4831 34.7587 18.8238 39.6636 20.6257 39.6636C21.285 39.6636 21.9442 38.5226 22.2431 37.9345V37.9463C22.2431 37.9463 22.2606 37.911 22.2958 37.8287C22.3327 37.7557 22.3679 37.6812 22.4013 37.6053V37.5818C22.665 36.9701 23.2539 35.5704 24.1329 33.2533C25.2667 30.2657 26.3567 26.5253 26.3567 26.5253C26.3567 26.5253 26.4622 27.4428 26.7874 28.9483C26.9807 29.8424 27.4026 30.8185 27.7278 31.7713C27.4641 32.2653 27.3059 32.5477 27.3059 32.5477L27.3147 32.5594C27.1038 32.9358 26.8664 33.3359 26.6204 33.7357C25.7238 35.1706 24.6515 36.8057 24.5108 37.2762C24.3438 37.8289 24.379 38.2406 24.7042 38.57C24.9415 38.8053 25.3634 38.8522 25.8117 38.8053C26.6204 38.7346 27.1829 38.4642 27.4642 38.2994C27.9037 38.0877 28.4047 37.7701 28.8882 37.2996C29.7672 36.4293 30.3033 35.1943 30.2506 33.5476C30.2242 32.6419 30.0045 31.748 29.732 30.9011C29.8111 30.7482 29.8903 30.5952 29.9693 30.4306C31.3581 27.7134 32.4305 24.726 32.4305 24.726C32.4305 24.726 32.5359 25.6434 32.8612 27.149C33.0281 27.9135 33.3622 28.7487 33.661 29.5721C32.3602 30.9953 31.5427 32.642 31.2614 33.7241C30.7428 35.7237 31.1472 36.6294 31.9119 36.8411C32.2546 36.9352 32.7469 36.7235 33.116 36.5118C33.5731 36.3118 34.1268 35.9706 34.6367 35.4649C35.5157 34.5945 36.3595 33.383 36.3156 31.7481C36.2892 30.9953 36.1398 30.2543 35.9376 29.5486C37.0451 28.9369 38.4778 28.5841 40.2974 28.8781C44.2088 29.4898 44.9823 32.7596 44.833 34.124C44.6836 35.4886 43.8661 36.2412 43.5936 36.4765C43.3211 36.7 43.2332 36.7824 43.2595 36.947C43.2947 37.1941 43.4178 37.1822 43.6551 37.1353C43.9803 37.0646 45.7119 36.0179 45.7822 33.5009C45.8877 30.2658 43.5936 26.7372 39.5239 26.7723ZM9.35717 40.3812C8.06506 42.2749 6.24557 42.9924 5.47206 42.3807C4.63703 41.7338 4.96216 38.9462 6.55321 36.9348C7.52009 35.7116 8.77704 34.5824 9.60328 33.8885C9.78787 33.7355 10.0691 33.5122 10.4032 33.2415C10.4559 33.1946 10.4911 33.171 10.4911 33.171C10.5526 33.1239 10.6229 33.0651 10.6932 33.0063C11.2821 35.8763 10.7196 38.3934 9.35717 40.3812ZM18.8062 31.783C18.358 33.2533 17.4087 37.0289 16.8373 36.8172C16.345 36.6408 16.0462 33.7826 16.7405 30.9597C17.0921 29.5363 17.8393 27.8427 18.2788 27.1839C18.9908 26.1253 19.7642 25.7724 19.9577 26.2076C20.1862 26.7723 19.0875 30.8656 18.8062 31.783ZM26.6028 36.7702C26.4094 36.8997 26.2336 36.9937 26.1545 36.9232C26.093 36.8762 26.2336 36.6997 26.2336 36.6997C26.2336 36.6997 27.2092 35.3 27.596 34.6531C27.8157 34.2768 28.0794 33.8416 28.3607 33.3475V33.4887C28.3608 35.1823 27.1478 36.3115 26.6028 36.7702ZM32.615 34.9353C32.4743 34.7941 32.492 34.3589 32.9666 32.9945C33.1512 32.4535 33.5731 31.5478 34.3026 30.6891C34.3905 31.042 34.4433 31.383 34.4345 31.7007C34.4258 33.8179 33.3007 34.6059 32.615 34.9353Z" fill="#CF649A"/>
</svg>
