<svg width="46" height="46" viewBox="0 0 46 46" fill="none" xmlns="http://www.w3.org/2000/svg">
<path fill-rule="evenodd" clip-rule="evenodd" d="M0.571411 0.193604H45.5714V45.3307H0.571411V0.193604Z" fill="white"/>
<path fill-rule="evenodd" clip-rule="evenodd" d="M19.3346 24.0152C19.3346 24.0152 18.2598 24.6426 20.1003 24.8545C22.3308 25.11 23.47 25.0732 25.9272 24.607C25.9272 24.607 26.5741 25.0133 27.4771 25.3647C21.9673 27.7329 15.0075 25.2277 19.3346 24.0152ZM18.6611 20.9249C18.6611 20.9249 17.4553 21.8201 19.2975 22.0112C21.6801 22.258 23.5609 22.2782 26.8173 21.6497C26.8173 21.6497 27.267 22.1075 27.9746 22.3576C21.3138 24.3117 13.8956 22.5114 18.6611 20.9249Z" fill="#3174B9"/>
<path fill-rule="evenodd" clip-rule="evenodd" d="M24.3364 15.6821C25.6947 17.2503 23.9804 18.6607 23.9804 18.6607C23.9804 18.6607 27.4276 16.8761 25.8443 14.6405C24.3661 12.5567 23.2322 11.5214 29.37 7.95129C29.3697 7.95106 19.7353 10.3639 24.3364 15.6821Z" fill="#CA3132"/>
<path fill-rule="evenodd" clip-rule="evenodd" d="M31.6233 26.3012C31.6233 26.3012 32.419 26.9592 30.7469 27.468C27.5675 28.434 17.5114 28.7253 14.7181 27.5064C13.7147 27.0681 15.5973 26.4604 16.1896 26.3321C16.8073 26.1981 17.1598 26.2225 17.1598 26.2225C16.0432 25.4338 9.9423 27.7715 14.0614 28.4422C25.2934 30.2689 34.5364 27.6198 31.6233 26.3012ZM19.8518 17.7227C19.8518 17.7227 14.7372 18.9415 18.0409 19.3846C19.4362 19.5717 22.2158 19.5286 24.8069 19.3106C26.9239 19.1324 29.0488 18.7512 29.0488 18.7512C29.0488 18.7512 28.3029 19.0722 27.7624 19.4417C22.5678 20.8123 12.5344 20.174 15.4231 18.7729C17.8656 17.5878 19.8518 17.7227 19.8518 17.7227ZM29.0275 22.8666C34.3076 20.1152 31.8664 17.4705 30.1619 17.8269C29.7452 17.9142 29.5582 17.9896 29.5582 17.9896C29.5582 17.9896 29.7137 17.7456 30.0092 17.6407C33.3806 16.4523 35.9729 21.1467 28.9223 23.0057C28.922 23.0057 29.0033 22.9322 29.0275 22.8666Z" fill="#3174B9"/>
<path fill-rule="evenodd" clip-rule="evenodd" d="M25.8446 2.185C25.8446 2.185 28.7681 5.11935 23.0709 9.63011C18.5019 13.2499 22.0292 15.3131 23.0695 17.6714C20.402 15.2578 18.4454 13.1328 19.7579 11.1555C21.6849 8.25297 27.0242 6.84539 25.8446 2.185Z" fill="#CA3132"/>
<path fill-rule="evenodd" clip-rule="evenodd" d="M20.3714 30.3248C25.4388 30.6498 33.222 30.1442 33.4067 27.7386C33.4067 27.7386 33.0523 28.6505 29.2182 29.3738C24.8925 30.1906 19.5564 30.0955 16.3926 29.5717C16.3926 29.5717 17.0409 30.1098 20.3714 30.3248Z" fill="#3174B9"/>
<path fill-rule="evenodd" clip-rule="evenodd" d="M33.1724 34.6386H33.0183V34.552H33.4341V34.6386H33.28V35.0714H33.1724V34.6386ZM34.0021 34.6602H34.0003L33.8471 35.0711H33.7768L33.6246 34.6602H33.6228V35.0711H33.5205V34.5517H33.6706L33.8116 34.9192L33.9526 34.5517H34.1013V35.0711H34.0024V34.6602H34.0021ZM19.5409 39.5152C19.0631 39.9306 18.5579 40.1643 18.1043 40.1643C17.458 40.1643 17.1074 39.7748 17.1074 39.1517C17.1074 38.4771 17.4828 37.9835 18.9853 37.9835H19.5407V39.5152H19.5409ZM20.86 41.0077V36.3871C20.86 35.2062 20.1885 34.4269 18.57 34.4269C17.6257 34.4269 16.7978 34.6609 16.1248 34.959L16.3186 35.7774C16.8487 35.5821 17.5342 35.4011 18.207 35.4011C19.1394 35.4011 19.5407 35.7774 19.5407 36.5565V37.1407H19.0747C16.8097 37.1407 15.7877 38.0221 15.7877 39.3473C15.7877 40.4891 16.4612 41.1382 17.7291 41.1382C18.5441 41.1382 19.1529 40.8007 19.7214 40.3069L19.8248 41.0077H20.86ZM25.2622 41.0077H23.6175L21.6371 34.5445H23.0738L24.303 38.5162L24.5766 39.7095C25.1966 37.9835 25.6367 36.2312 25.8569 34.5445H27.2538C26.8799 36.6726 26.2061 39.0091 25.2622 41.0077ZM31.5742 39.5152C31.0949 39.9306 30.5897 40.1643 30.137 40.1643C29.4908 40.1643 29.1406 39.7748 29.1406 39.1517C29.1406 38.4771 29.5163 37.9835 31.0179 37.9835H31.5742V39.5152ZM32.8937 41.0077V36.3871C32.8937 35.2062 32.2202 34.4269 30.6032 34.4269C29.658 34.4269 28.8304 34.6609 28.1573 34.959L28.3511 35.7774C28.8813 35.5821 29.5681 35.4011 30.2412 35.4011C31.1722 35.4011 31.5739 35.7774 31.5739 36.5565V37.1407H31.108C28.8428 37.1407 27.8214 38.0221 27.8214 39.3473C27.8214 40.4891 28.4935 41.1382 29.7616 41.1382C30.5773 41.1382 31.1852 40.8007 31.7551 40.3069L31.859 41.0077H32.8937ZM14.3414 42.106C13.9656 42.657 13.3576 43.0932 12.693 43.3393L12.0416 42.5699C12.548 42.3092 12.9818 41.8884 13.1837 41.4969C13.3576 41.148 13.4302 40.6993 13.4302 39.6254V32.2457H14.8321V39.5236C14.8321 40.96 14.7177 41.5405 14.3414 42.106Z" fill="#CA3132"/>
</svg>
