<svg width="46" height="46" viewBox="0 0 46 46" fill="none" xmlns="http://www.w3.org/2000/svg">
<path d="M23.1236 0.193604C11.6998 0.193604 12.4131 5.18873 12.4131 5.18873L12.4258 10.3638H23.3273V11.9175H8.09582C8.09582 11.9175 0.785706 11.0816 0.785706 22.7037C0.785706 34.3262 7.16616 33.914 7.16616 33.914H10.974V28.5207C10.974 28.5207 10.7687 22.0874 17.2526 22.0874H28.065C28.065 22.0874 34.1397 22.1864 34.1397 16.1677V6.21618C34.1397 6.21618 35.0623 0.193604 23.1236 0.193604ZM17.1125 3.67376C17.3701 3.67352 17.6252 3.72451 17.8633 3.8238C18.1013 3.9231 18.3176 4.06874 18.4998 4.25241C18.6819 4.43608 18.8264 4.65417 18.9249 4.89419C19.0233 5.1342 19.0739 5.39145 19.0737 5.6512C19.0739 5.91094 19.0233 6.16819 18.9249 6.40821C18.8264 6.64823 18.6819 6.86631 18.4998 7.04998C18.3176 7.23365 18.1013 7.3793 17.8633 7.47859C17.6252 7.57788 17.3701 7.62887 17.1125 7.62864C16.8549 7.62887 16.5998 7.57788 16.3617 7.47859C16.1237 7.3793 15.9074 7.23365 15.7252 7.04998C15.5431 6.86631 15.3986 6.64823 15.3001 6.40821C15.2017 6.16819 15.1511 5.91094 15.1513 5.6512C15.1511 5.39145 15.2017 5.1342 15.3001 4.89419C15.3986 4.65417 15.5431 4.43608 15.7252 4.25241C15.9074 4.06874 16.1237 3.9231 16.3617 3.8238C16.5998 3.72451 16.8549 3.67352 17.1125 3.67376Z" fill="url(#paint0_linear_61_88)"/>
<path d="M23.448 45.3308C34.8718 45.3308 34.1585 40.3357 34.1585 40.3357L34.1458 35.1608H23.2441V33.6071H38.4756C38.4756 33.6071 45.7857 34.443 45.7857 22.8205C45.7857 11.1982 39.4053 11.6104 39.4053 11.6104H35.5974V17.0035C35.5974 17.0035 35.8027 23.4368 29.3188 23.4368H18.5064C18.5064 23.4368 12.4317 23.3379 12.4317 29.3567V39.3084C12.4317 39.3084 11.5092 45.3308 23.4478 45.3308H23.448ZM29.4591 41.851C29.2015 41.8512 28.9463 41.8003 28.7083 41.701C28.4703 41.6017 28.254 41.456 28.0718 41.2723C27.8896 41.0887 27.7452 40.8706 27.6467 40.6306C27.5482 40.3906 27.4977 40.1333 27.4979 39.8736C27.4976 39.6138 27.5482 39.3565 27.6467 39.1165C27.7451 38.8765 27.8896 38.6584 28.0717 38.4747C28.2539 38.291 28.4702 38.1453 28.7083 38.046C28.9463 37.9467 29.2015 37.8957 29.4591 37.8959C29.7167 37.8957 29.9718 37.9467 30.2099 38.046C30.4479 38.1453 30.6642 38.2909 30.8464 38.4746C31.0285 38.6583 31.173 38.8764 31.2715 39.1164C31.3699 39.3564 31.4205 39.6136 31.4203 39.8734C31.4205 40.1331 31.3699 40.3904 31.2715 40.6304C31.173 40.8704 31.0285 41.0885 30.8464 41.2722C30.6642 41.4558 30.4479 41.6015 30.2099 41.7008C29.9718 41.8001 29.7167 41.8511 29.4591 41.8508V41.851Z" fill="url(#paint1_linear_61_88)"/>
<defs>
<linearGradient id="paint0_linear_61_88" x1="5.1102" y1="4.25342" x2="27.5931" y2="26.329" gradientUnits="userSpaceOnUse">
<stop stop-color="#387EB8"/>
<stop offset="1" stop-color="#366994"/>
</linearGradient>
<linearGradient id="paint1_linear_61_88" x1="18.7983" y1="18.5483" x2="42.9331" y2="41.1762" gradientUnits="userSpaceOnUse">
<stop stop-color="#FFE052"/>
<stop offset="1" stop-color="#FFC331"/>
</linearGradient>
</defs>
</svg>
