<svg width="46" height="46" viewBox="0 0 46 46" fill="none" xmlns="http://www.w3.org/2000/svg">
<path d="M0.571411 23.4219V0.853333H45.5714V45.9905H0.571411" fill="#007ACC"/>
<path d="M10.4376 23.5008V25.3402H16.2876V42.0409H20.4388V25.3402H26.2888V23.5347C26.2888 22.5191 26.2888 21.6954 26.2438 21.6728C26.2438 21.6389 22.6776 21.6277 18.3463 21.6277L10.4713 21.6615V23.5121L10.4376 23.5008ZM36.7288 21.6164C37.8763 21.8872 38.7538 22.4063 39.5413 23.23C39.9576 23.6814 40.5763 24.4713 40.6213 24.6744C40.6213 24.7421 38.6751 26.0624 37.4938 26.7959C37.4488 26.8297 37.2688 26.6379 37.0888 26.3445C36.5038 25.5094 35.9076 25.1484 34.9738 25.0806C33.6238 24.9904 32.7238 25.7013 32.7238 26.8861C32.7238 27.2472 32.7913 27.4503 32.9263 27.7437C33.2301 28.3644 33.7926 28.7368 35.5363 29.5041C38.7538 30.8921 40.1488 31.8061 40.9926 33.1151C41.9488 34.582 42.1626 36.884 41.5213 38.6105C40.8013 40.495 39.0463 41.7701 36.5376 42.1876C35.7501 42.323 33.9501 42.3005 33.1063 42.1538C31.3063 41.8152 29.5851 40.9125 28.5276 39.7502C28.1113 39.2988 27.3126 38.0914 27.3576 38.0124L27.7851 37.7416L29.4726 36.7599L30.7438 36.0151L31.0363 36.4101C31.4076 36.9969 32.2401 37.7868 32.7238 38.0576C34.1863 38.8136 36.1438 38.7121 37.1113 37.8319C37.5276 37.4482 37.7076 37.042 37.7076 36.4778C37.7076 35.9587 37.6288 35.7217 37.3701 35.3268C37.0101 34.8303 36.2901 34.424 34.2651 33.5213C31.9363 32.5283 30.9463 31.8964 30.0238 30.9259C29.4951 30.3391 29.0113 29.4251 28.7863 28.6691C28.6176 28.0146 28.5613 26.4122 28.7188 25.769C29.2026 23.5121 30.9013 21.9323 33.3313 21.481C34.1188 21.323 35.9751 21.3907 36.7513 21.5938L36.7288 21.6164Z" fill="white"/>
</svg>
